Coordinates
version=1
nRows=17
nColumns=34
inDegrees=yes

Units are S.I. units (second, meters, Newtons, ...)
Angles are in degrees.

endheader
time	pelvis_tilt	pelvis_list	pelvis_rotation	pelvis_tx	pelvis_ty	pelvis_tz	hip_flexion_r	hip_adduction_r	hip_rotation_r	knee_angle_r	ankle_angle_r	subtalar_angle_r	mtp_angle_r	hip_flexion_l	hip_adduction_l	hip_rotation_l	knee_angle_l	socket_flexion	socket_adduction	socket_rotation	socket_tx	socket_ty	socket_tz	pros_ankle_rx	pros_ankle_ry	pros_ankle_rz	pros_ankle_tx	pros_ankle_ty	pros_ankle_tz	foot_flex	lumbar_extension	lumbar_bending	lumbar_rotation
      0.00000000	     -0.15295978	     -9.45495692	      4.83044920	     -0.77411214	      1.02964799	      0.38328867	    -22.90054128	     13.20266851	    -13.35583425	      2.53442179	      2.98766211	     24.75492788	     30.51583073	     25.99874825	     -6.61728092	      6.99677467	     -1.81510856	      2.42469481	     -3.18699715	     -0.10511210	      0.00000000	      0.00378478	      0.00000000	      0.00000000	      0.00000000	      0.00000000	      0.00000000	      0.00000000	      0.00000000	      1.92522183	    -10.45393241	      5.61761302	    -16.50590216
      0.00416667	     -0.16018357	     -9.44103743	      4.75588919	     -0.76898815	      1.02869858	      0.38316283	    -23.12361787	     13.13959412	    -13.31065133	      2.37988995	      2.98500756	     24.76986887	     30.52417534	     26.08291178	     -6.59300151	      7.03035954	     -2.11007558	      2.74595065	     -3.15594774	     -0.10695060	      0.00000000	      0.00293507	      0.00000000	      0.00000000	      0.00000000	      0.00000000	      0.00000000	      0.00000000	      0.00000000	      1.55207402	    -10.42234770	      5.54758500	    -16.49492315
      0.00833333	     -0.19956874	     -9.42216918	      4.65164436	     -0.76365477	      1.02771768	      0.38306212	    -23.31007872	     13.05137922	    -13.22884572	      2.18670640	      3.02527482	     24.79892612	     30.56348287	     26.15497858	     -6.58171567	      7.08952145	     -2.34729091	      3.07152905	     -3.12458869	     -0.10355034	      0.00000000	      0.00203534	      0.00000000	      0.00000000	      0.00000000	      0.00000000	      0.00000000	      0.00000000	      0.00000000	      1.06856941	    -10.43326441	      5.38584596	    -16.44184646
      0.01250000	     -0.20988523	     -9.39975639	      4.56683839	     -0.75812937	      1.02674275	      0.38290227	    -23.53017304	     12.96555998	    -13.16953883	      1.99361356	      3.02902647	     24.81804599	     30.58981964	     26.23397044	     -6.55145445	      7.11594664	     -2.66336405	      3.41298197	     -3.09497634	     -0.11046509	      0.00000000	      0.00111326	      0.00000000	      0.00000000	      0.00000000	      0.00000000	      0.00000000	      0.00000000	      0.00000000	      0.67467496	    -10.40112479	      5.29160896	    -16.40732119
      0.01666667	     -0.23160874	     -9.37671808	      4.47512256	     -0.75246219	      1.02575353	      0.38274275	    -23.73969379	     12.87285769	    -13.10482136	      1.78757998	      3.03220964	     24.83685668	     30.62198161	     26.31735738	     -6.52371160	      7.14635176	     -2.98269255	      3.76387932	     -3.07355793	     -0.10975624	      0.00000000	      0.00015181	      0.00000000	      0.00000000	      0.00000000	      0.00000000	      0.00000000	      0.00000000	      0.00000000	      0.26281215	    -10.37908852	      5.17382775	    -16.36720518
      0.02083333	     -0.28559468	     -9.33000449	      4.34010653	     -0.74668603	      1.02479115	      0.38262721	    -23.87211860	     12.72315831	    -13.01259934	      1.48940298	      3.06267888	     24.86236687	     30.72073756	     26.39079320	     -6.48678381	      7.16286483	     -3.26161397	      4.10983181	     -3.08321750	     -0.09521381	      0.00000000	     -0.00075145	      0.00000000	      0.00000000	      0.00000000	      0.00000000	      0.00000000	      0.00000000	      0.00000000	     -0.21179658	    -10.41002945	      4.93820625	    -16.25761060
      0.02500000	     -0.31418953	     -9.26684931	      4.20735517	     -0.74083202	      1.02388372	      0.38250554	    -24.00134818	     12.55231198	    -12.94570923	      1.13720674	      3.07607890	     24.88481253	     30.86365852	     26.45420788	     -6.42750021	      7.11563709	     -3.60479354	      4.45935158	     -3.11021807	     -0.07966974	      0.00000000	     -0.00170836	      0.00000000	      0.00000000	      0.00000000	      0.00000000	      0.00000000	      0.00000000	      0.00000000	     -0.60953437	    -10.41176348	      4.72637188	    -16.13232278
      0.02916667	     -0.31612400	     -9.23511344	      4.12568132	     -0.73483148	      1.02294918	      0.38229758	    -24.23391767	     12.44725446	    -12.91110101	      0.92159288	      3.05333630	     24.89305788	     30.90109967	     26.52294637	     -6.38818760	      7.09382832	     -3.99765607	      4.81471536	     -3.09644516	     -0.10350377	      0.00000000	     -0.00273702	      0.00000000	      0.00000000	      0.00000000	      0.00000000	      0.00000000	      0.00000000	      0.00000000	     -0.92287304	    -10.35336909	      4.66318694	    -16.10653054
      0.03333333	     -0.32730470	     -9.19705475	      4.05962476	     -0.72881810	      1.02203679	      0.38203419	    -24.43625876	     12.33485233	    -12.84853297	      0.67020954	      3.01410977	     24.90154660	     30.94607396	     26.59716053	     -6.33554160	      7.09430889	     -4.39327848	      5.17243606	     -3.09408404	     -0.09376276	      0.00000000	     -0.00379568	      0.00000000	      0.00000000	      0.00000000	      0.00000000	      0.00000000	      0.00000000	      0.00000000	     -1.24118440	    -10.32352173	      4.54393146	    -16.07515563
      0.03750000	     -0.40854171	     -8.99386075	      3.79072585	     -0.72275933	      1.02134230	      0.38204833	    -23.96978140	     11.80285850	    -13.57998785	     -0.62305550	      2.93596937	     25.93870692	     35.10286579	     26.62881208	     -6.14080530	      6.65657560	     -4.88452886	      5.26579385	     -3.35632971	      0.11088918	      0.00000000	     -0.00448331	      0.00000000	      0.00000000	      0.00000000	      0.00000000	      0.00000000	      0.00000000	      0.00000000	     -1.64853812	    -10.37285241	      4.06039700	    -15.72267847
      0.04166667	     -0.41203521	     -8.94302013	      3.75866612	     -0.71673584	      1.02054822	      0.38172599	    -24.14665557	     11.68679288	    -13.49355996	     -0.90427247	      2.84088452	     25.89312881	     35.13198501	     26.70823991	     -6.06041407	      6.66683727	     -5.33709228	      5.61344679	     -3.37713153	      0.12457408	      0.00000000	     -0.00549761	      0.00000000	      0.00000000	      0.00000000	      0.00000000	      0.00000000	      0.00000000	      0.00000000	     -1.87723855	    -10.37191378	      3.89024177	    -15.70886680
      0.04583333	     -0.41644873	     -8.89707133	      3.71498228	     -0.71061925	      1.01978157	      0.38144027	    -24.35041033	     11.57402642	    -13.43771492	     -1.14572022	      2.76821882	     25.86562354	     35.14892174	     26.76135971	     -6.00184192	      6.65232266	     -5.76820463	      5.95062811	     -3.37625077	      0.10481333	      0.00000000	     -0.00661152	      0.00000000	      0.00000000	      0.00000000	      0.00000000	      0.00000000	      0.00000000	      0.00000000	     -2.09462638	    -10.33188287	      3.79816935	    -15.70638116
      0.05000000	     -0.45381835	     -8.72378248	      3.58908290	     -0.70470729	      1.01925280	      0.38117748	    -24.23641732	     11.24157892	    -13.43511979	     -1.86316355	      2.50257817	     25.55895840	     35.39517541	     26.83449235	     -5.77410643	      6.41089816	     -6.27533536	      6.24658979	     -3.63597101	      0.20972490	      0.00000000	     -0.00715156	      0.00000000	      0.00000000	      0.00000000	      0.00000000	      0.00000000	      0.00000000	      0.00000000	     -2.18561815	    -10.45371094	      3.39987021	    -15.67433713
      0.05416667	     -0.49729723	     -8.59135407	      3.48060672	     -0.69861474	      1.01866358	      0.38097427	    -24.12581691	     10.94195209	    -13.62153158	     -2.53637505	      2.22701399	     25.67758647	     38.40855347	     26.89898824	     -5.62351155	      6.16602919	     -6.91176133	      6.28398011	     -3.79434278	      0.32060469	      0.00000000	     -0.00802421	      0.00000000	      0.00000000	      0.00000000	      0.00000000	      0.00000000	      0.00000000	      0.00000000	     -2.38623184	    -10.42438152	      3.09176808	    -15.58000529
      0.05833333	     -0.48344173	     -8.53369163	      3.49314719	     -0.69248671	      1.01813568	      0.38061969	    -24.30921810	     10.84345020	    -13.53954100	     -2.80852183	      2.11818446	     25.65367947	     38.41265593	     26.92449862	     -5.54766926	      6.16001393	     -7.36889350	      6.59956673	     -3.77440689	      0.30164338	      0.00000000	     -0.00911985	      0.00000000	      0.00000000	      0.00000000	      0.00000000	      0.00000000	      0.00000000	      0.00000000	     -2.51692581	    -10.37578321	      2.99220655	    -15.58527064
      0.06250000	     -0.46344411	     -8.42632593	      3.47892395	     -0.68667583	      1.01773612	      0.38022777	    -24.25755387	     10.63382569	    -13.52655036	     -3.46057196	      1.70884576	     25.41949959	     38.45659683	     27.00644356	     -5.38730736	      6.10315722	     -7.99272941	      6.87521297	     -3.89060904	      0.33226697	      0.00000000	     -0.00964251	      0.00000000	      0.00000000	      0.00000000	      0.00000000	      0.00000000	      0.00000000	      0.00000000	     -2.34674713	    -10.55530397	      2.62378637	    -15.63337337
      0.06666667	     -0.53229058	     -8.24512974	      3.36262024	     -0.68065335	      1.01748188	      0.37998304	    -24.00514738	     10.27834965	    -13.57437962	     -4.34236470	      1.52112019	     25.09347449	     39.19686772	     27.05404645	     -5.16614768	      5.73876470	     -8.49768183	      7.08121431	     -4.16435381	      0.49936580	      0.00000000	     -0.01015141	      0.00000000	      0.00000000	      0.00000000	      0.00000000	      0.00000000	      0.00000000	      0.00000000	     -2.40415768	    -10.54859892	      2.29311388	    -15.63829510
